# xmcd
#
# Track frame offsets:
#	150
#	14662
#	28877
#	44692
#	59825
#	75242
#	91872
#	106622
#	123122
#	136332
#	156852
#
# Disc length: 2305 seconds
#
# Revision: 2
# Processed by: cddbd v1.5.1PL0 Copyright (c) Steve Scherf et al.
# Submitted via: audiograbber 1.83.01
#
DISCID=8908ff0b
DTITLE=Suzy Boggus - Voices In The Wind
DYEAR=1992
DGENRE=Country
TTITLE0=Heartache
TTITLE1=Drive South
TTITLE2=Don't Wanna
TTITLE3=How Come You Go To Her
TTITLE4=Other Side Of The Hill
TTITLE5=In The Day
TTITLE6=Love Goes Without Saying
TTITLE7=Eat At Joe's
TTITLE8=Lovin' A Hurricane
TTITLE9=Letting Go
TTITLE10=Cold Day In July
EXTD=
EXTT0=
EXTT1=
EXTT2=
EXTT3=
EXTT4=
EXTT5=
EXTT6=
EXTT7=
EXTT8=
EXTT9=
EXTT10=
PLAYORDER=
